# xmcd CD database file generated by OrangeCD 5.2
#
# Track frame offsets:
#	150
#	14161
#	26171
#	44462
#	58862
#	69782
#	83852
#	100587
#	114769
#	126392
#
# Disc length: 1864 seconds
#
# Revision: 0
# Processed by: cddbd v1.5.1PL0 Copyright (c) Steve Scherf et al.
# Submitted via: OrangeCD 5.2
#
DISCID=8207460a
DTITLE=Johnny Cash - Gone Girl
DYEAR=1978
DGENRE=Country
TTITLE0=Gone Girl
TTITLE1=I Will Rock And Roll With You
TTITLE2=The Diplomat
TTITLE3=No Expectations
TTITLE4=It Comes And Goes
TTITLE5=It'll Be Her
TTITLE6=The Gambler
TTITLE7=Cajun Born
TTITLE8=Johnny Cash and June Carter Cash - You And Me
TTITLE9=A Song For Life
EXTD=
EXTT0=
EXTT1=
EXTT2=
EXTT3=
EXTT4=
EXTT5=
EXTT6=
EXTT7=
EXTT8=
EXTT9=
PLAYORDER=
